<svg width="64" height="106" viewBox="0 0 64 106" fill="none" xmlns="http://www.w3.org/2000/svg">
<g id="logo_bms">
<g id="BMS GROUP">
<path d="M13.363 77.3313C14.871 77.6154 16.0949 78.1728 17.0347 79.0033C17.9963 79.8338 18.4771 81.0795 18.4771 82.7405C18.4771 85.1664 17.6029 86.8821 15.8545 87.8874C14.1279 88.8709 11.702 89.3627 8.57669 89.3627H1.2661V66.6441H7.69155C10.8824 66.6441 13.3193 67.1031 15.0021 68.021C16.685 68.9171 17.5264 70.3923 17.5264 72.4467C17.5264 73.7798 17.1221 74.8617 16.3135 75.6922C15.5267 76.5008 14.5432 77.0472 13.363 77.3313ZM6.64249 70.4469V75.725H8.64225C10.9152 75.725 12.0517 74.807 12.0517 72.9712C12.0517 72.0533 11.7457 71.4086 11.1338 71.037C10.5218 70.6436 9.54924 70.4469 8.21607 70.4469H6.64249ZM8.60947 85.4615C10.0301 85.4615 11.101 85.2539 11.8222 84.8386C12.5653 84.4015 12.9368 83.6038 12.9368 82.4455C12.9368 80.3474 11.6255 79.2983 9.00286 79.2983H6.64249V85.4615H8.60947Z" fill="#070051"/>
<path d="M44.0539 89.3627H38.7759L38.3825 80.4785C38.2732 78.3585 38.2186 76.468 38.2186 74.807C38.2186 73.5394 38.2514 72.3374 38.3169 71.2009L34.8092 86.9695H29.7278L25.9906 71.2009C26.1217 73.1023 26.1873 74.8945 26.1873 76.5773C26.1873 77.8449 26.1545 79.1672 26.0889 80.5441L25.6955 89.3627H20.4502L22.155 66.6441H28.941L32.3504 82.0521L35.5304 66.6441H42.3492L44.0539 89.3627Z" fill="#070051"/>
<path d="M54.1014 66.0868C55.8061 66.0868 57.2813 66.3272 58.5271 66.808C59.7947 67.2888 60.9421 68.021 61.9693 69.0045L59.4778 71.9222C57.9261 70.6545 56.2651 70.0207 54.4948 70.0207C53.555 70.0207 52.8119 70.2174 52.2655 70.6108C51.7192 70.9824 51.446 71.5288 51.446 72.25C51.446 72.7527 51.5662 73.1679 51.8066 73.4957C52.047 73.8017 52.4732 74.0967 53.0851 74.3809C53.6971 74.665 54.615 75.0037 55.8389 75.3971C58.1555 76.1402 59.8603 77.0581 60.953 78.1509C62.0458 79.2218 62.5922 80.7517 62.5922 82.7405C62.5922 84.1611 62.2315 85.4178 61.5103 86.5105C60.7891 87.5815 59.751 88.4229 58.3959 89.0348C57.0409 89.6249 55.4346 89.92 53.5769 89.92C51.7192 89.92 50.0691 89.6249 48.6266 89.0348C47.206 88.4447 45.9822 87.6579 44.955 86.6745L47.6759 83.6912C48.5501 84.4343 49.4462 84.9916 50.3641 85.3631C51.3039 85.7347 52.3202 85.9205 53.4129 85.9205C54.5276 85.9205 55.4018 85.68 56.0356 85.1992C56.6912 84.6966 57.0191 84.0081 57.0191 83.1339C57.0191 82.5657 56.8989 82.0958 56.6585 81.7242C56.418 81.3308 56.0028 80.9812 55.4127 80.6752C54.8226 80.3692 53.9703 80.0414 52.8556 79.6917C50.3423 78.9268 48.5501 77.987 47.4792 76.8724C46.4302 75.7578 45.9057 74.3481 45.9057 72.6434C45.9057 71.3321 46.2553 70.1847 46.9547 69.2012C47.6541 68.1958 48.6266 67.4309 49.8724 66.9064C51.1181 66.36 52.5278 66.0868 54.1014 66.0868Z" fill="#070051"/>
<path d="M6.12631 91.3911C7.01418 91.3911 7.77911 91.5209 8.42111 91.7804C9.07677 92.0263 9.7256 92.4156 10.3676 92.9483L9.22019 94.1367C8.71479 93.7269 8.22988 93.4332 7.76545 93.2556C7.30103 93.0781 6.75464 92.9893 6.12631 92.9893C5.40235 92.9893 4.73303 93.1873 4.11835 93.5835C3.51733 93.9659 3.02559 94.5874 2.64312 95.448C2.26065 96.2949 2.06942 97.374 2.06942 98.6853C2.06942 100.666 2.39042 102.114 3.03242 103.029C3.68808 103.944 4.65108 104.402 5.92141 104.402C6.95954 104.402 7.85424 104.19 8.60551 103.767V99.5049H6.10582L5.88043 97.9272H10.5315V104.75C9.06994 105.583 7.53324 106 5.92141 106C4.06371 106 2.60897 105.378 1.55719 104.135C0.519063 102.892 0 101.076 0 98.6853C0 97.1554 0.273191 95.8441 0.819573 94.7513C1.37961 93.6449 2.12406 92.8117 3.05291 92.2517C3.99542 91.678 5.01988 91.3911 6.12631 91.3911Z" fill="#070051"/>
<path d="M17.9867 99.7712H15.7944V105.754H13.8479V91.637H17.5565C19.3185 91.637 20.6504 91.9716 21.5519 92.6409C22.4671 93.3103 22.9247 94.3074 22.9247 95.6324C22.9247 96.6159 22.672 97.415 22.1666 98.0296C21.6612 98.6443 20.8962 99.1087 19.8718 99.4229L23.6828 105.754H21.3675L17.9867 99.7712ZM17.7614 98.2755C18.7858 98.2755 19.5576 98.0706 20.0767 97.6608C20.5957 97.2374 20.8552 96.5612 20.8552 95.6324C20.8552 94.7582 20.5889 94.1298 20.0562 93.7474C19.5371 93.3512 18.697 93.1532 17.536 93.1532H15.7944V98.2755H17.7614Z" fill="#070051"/>
<path d="M31.1138 91.3911C32.3022 91.3911 33.3403 91.678 34.2282 92.2517C35.1297 92.8117 35.8264 93.6381 36.3181 94.7309C36.8235 95.8236 37.0762 97.1486 37.0762 98.7058C37.0762 100.236 36.8235 101.547 36.3181 102.64C35.8264 103.732 35.1297 104.566 34.2282 105.139C33.3403 105.713 32.3022 106 31.1138 106C29.9254 106 28.8805 105.72 27.979 105.16C27.0911 104.6 26.3945 103.773 25.8891 102.681C25.3973 101.588 25.1514 100.27 25.1514 98.7263C25.1514 97.2101 25.3973 95.8988 25.8891 94.7923C26.3945 93.6859 27.0979 92.8458 27.9995 92.2721C28.901 91.6848 29.9391 91.3911 31.1138 91.3911ZM31.1138 92.9893C29.8845 92.9893 28.9283 93.4537 28.2453 94.3825C27.5623 95.3114 27.2209 96.7593 27.2209 98.7263C27.2209 100.68 27.5623 102.114 28.2453 103.029C28.942 103.944 29.8981 104.402 31.1138 104.402C33.7091 104.402 35.0068 102.503 35.0068 98.7058C35.0068 94.8948 33.7091 92.9893 31.1138 92.9893Z" fill="#070051"/>
<path d="M49.9309 101.226C49.9309 102.168 49.7328 103.002 49.3367 103.726C48.9542 104.436 48.3873 104.996 47.6361 105.406C46.8984 105.802 46.0106 106 44.9725 106C43.4016 106 42.1859 105.57 41.3254 104.709C40.4785 103.835 40.055 102.674 40.055 101.226V91.637H42.0015V101.083C42.0015 102.175 42.2474 102.995 42.7391 103.541C43.2309 104.088 43.9753 104.361 44.9725 104.361C45.9833 104.361 46.7345 104.094 47.2263 103.562C47.718 103.015 47.9639 102.189 47.9639 101.083V91.637H49.9309V101.226Z" fill="#070051"/>
<path d="M57.5346 91.637C59.2831 91.637 60.6354 92.0058 61.5915 92.7434C62.5477 93.4674 63.0258 94.5533 63.0258 96.0012C63.0258 97.5447 62.5272 98.6921 61.5301 99.4434C60.5329 100.195 59.2079 100.57 57.5551 100.57H55.7726V105.754H53.8261V91.637H57.5346ZM57.4732 99.0336C58.6069 99.0336 59.4675 98.8151 60.0548 98.378C60.6559 97.9409 60.9564 97.1554 60.9564 96.0217C60.9564 95.0109 60.6559 94.2801 60.0548 93.8293C59.4675 93.3786 58.6206 93.1532 57.5142 93.1532H55.7726V99.0336H57.4732Z" fill="#070051"/>
</g>
<rect id="Rectangle 10" x="2" width="61" height="63" fill="#7E7D8E"/>
</g>
</svg>
